# xmcd CD database file
#
# Track frame offsets:
#	150
#	14210
#	37156
#	56646
#	81279
#	110180
#	143685
#	162389
#	192836
#	216788
#
# Disc length: 3105 seconds
#
# Revision: 0
# Processed by: cddbd v1.5.2PL0 Copyright (c) Steve Scherf et al.
# Submitted via: CDex 1.51
#
DISCID=970c1f0a
DTITLE=Various Artist - Echo 2012 - CD2
DYEAR=2012
DGENRE=Jazz
TTITLE0=Götz Altmann - Der wolf tanzt Cha-Cha-Cha
TTITLE1=Renaud Garcia-Fons - Aljmiado
TTITLE2=Max Frankl - Der Panther Li
TTITLE3=Joe Levano - Passport
TTITLE4=Magnus Öström - Between
TTITLE5=Andre Nendza - Nightfly
TTITLE6=Jonas Burgwinkl - Caligula
TTITLE7=Johannes Enders - Sonnentierchen
TTITLE8=Joachim Kühn Trio und HR-Bigband - Klänge des Himmels
TTITLE9=Iiro Rantala - Donna Lee
EXTD=YEAR: 2012
EXTT0=
EXTT1=
EXTT2=
EXTT3=
EXTT4=
EXTT5=
EXTT6=
EXTT7=
EXTT8=
EXTT9=
PLAYORDER=
